<svg width="58" height="21" viewBox="0 0 58 21" xmlns="http://www.w3.org/2000/svg" xmlns:sketch="http://www.bohemiancoding.com/sketch/ns"><title>Logo 2</title><desc>Created with Sketch.</desc><path d="M41.702 6.103c1.492 0 1.886-1.011 1.886-2.047 0-.7-.395-1.572-1.56-1.572-1.531 0-1.531 1.479-1.531 1.965 0 .452 0 1.654 1.204 1.654zm13.534 11.738c-.321.123-.637-.018-.637-.018-.123-.112-.188-.316-.188-.592 0-.828.624-1.927 1.285-3.091.793-1.398 1.693-2.982 1.693-4.475 0-1.727-1.014-2.8-2.646-2.8-2.244 0-4.067 1.735-5.096 2.998.023-.173.038-.346.038-.51 0-1.801-1.118-2.07-1.785-2.07-.465 0-.994.193-1.016.201l-.194.071v.206c0 2.215-.644 4.152-1.267 6.026-.157.472-.311.936-.45 1.393-.848 1.43-2.129 2.696-3.209 2.696-.445 0-.671-.112-.671-.722 0-.826.489-1.99 1.007-3.222.629-1.498 1.343-3.196 1.343-4.71 0-1.277-.734-2.07-1.915-2.07-.454 0-1.023.161-1.047.168l-.212.061-.003.22c-.01.843-.117 1.64-.28 2.396-.521.287-1.358.616-2.558.71.019-.163.035-.35.035-.546 0-2.113-1.059-3.479-2.699-3.479-1.404 0-2.385 1.27-2.385 3.087 0 1.279.612 2.38 1.648 2.992-.767 2.737-3.055 5.009-5.087 5.009-.536 0-.775-.255-.775-.826 0-.874.468-2.033.963-3.261.592-1.467 1.204-2.984 1.204-4.383 0-1.296-.716-2.07-1.915-2.07-.458 0-.981.163-1.003.17l-.204.064-.003.213c-.027 1.992-.649 3.695-1.249 5.342-.213.584-.421 1.156-.596 1.722-1.117 1.365-3.406 3.314-5.903 3.314l-.501.013-.393.011c-.476 0-.741-.059-.859-.54 1.776-.476 3.525-1.402 4.834-2.564 1.629-1.446 2.49-3.148 2.49-4.921 0-1.904-1.324-3.087-3.456-3.087-4.176 0-7.086 4.611-7.086 8.749 0 .335.023.652.059.957-.857.742-1.847 1.226-2.558 1.226-.43 0-.801 0-.801-1.479 0-2.468 1.587-5.845 2.987-8.825 1.088-2.316 2.027-4.316 2.027-5.498 0-.754-.539-1.261-1.34-1.261-1.744 0-3.03 1.797-4.279 5.996-.39-.083-.785-.125-1.179-.125-2.494 0-4.799 1.047-6.492 2.949-1.605 1.804-2.526 4.27-2.526 6.765 0 2.677 1.464 4.34 3.821 4.34 2.24 0 3.634-1.174 4.293-1.921.241.936.974 1.973 2.679 1.973 1.571 0 3.094-.731 4.252-1.7.785 1.071 2.039 1.648 3.687 1.648 2.304 0 4.453-1.014 5.935-2.271.381 1.408 1.499 2.218 3.154 2.218 3.709 0 7.256-3.684 8.618-7.312.763-.032 1.536-.146 2.219-.362l-.203.538c-.558 1.471-1.085 2.861-1.085 4.232 0 1.929 1.164 3.035 3.195 3.035 1.384 0 2.631-.62 3.619-1.475.33.801 1.063 1.11 1.76 1.11.398 0 .747-.169.785-.188l.16-.08.003-.179c.078-4.312 4.021-9.989 6.285-9.989.278 0 .409.048.409.487 0 .67-.557 1.714-1.147 2.819-.785 1.47-1.674 3.137-1.674 4.643 0 .975.335 1.735.946 2.224l-.003.003c.013.013.12.112.356.234.268.148.573.256.914.32 0 0 1.238.225 2.335-.403 1.27-.825-.148-2.648-.469-2.525zm-34.078-8.193c.58 0 .827.255.827.852 0 1.582-1.688 3.221-4.156 4.082.302-2.374 1.733-4.934 3.329-4.934zm-12.012 2.552c-.456 1.753-1.785 5.831-4.284 5.831-1.094 0-1.323-.889-1.323-1.635 0-3.51 2.156-7.14 5.763-7.14.212 0 .408.009.593.022l-.749 2.921z" sketch:type="MSShapeGroup" fill="#fff"/></svg>